<mxfile host="app.diagrams.net" modified="2023-03-29T08:28:46.692Z" agent="5.0 (Macintosh; Intel Mac OS X 10_15_7) AppleWebKit/537.36 (KHTML, like Gecko) Chrome/111.0.0.0 Safari/537.36" etag="1O-zQvtWRpDGDVas99vZ" version="20.8.5" type="github">
  <diagram name="페이지-1" id="haRRuPQRFmIkM6pqHxqU">
    <mxGraphModel dx="1194" dy="798" grid="1" gridSize="10" guides="1" tooltips="1" connect="1" arrows="1" fold="1" page="1" pageScale="1" pageWidth="827" pageHeight="1169" math="0" shadow="0">
      <root>
        <mxCell id="0" />
        <mxCell id="1" parent="0" />
        <mxCell id="NF6D4BPZhElnnvevkt6z-1" value="To-Do 공유 기능" style="text;strokeColor=none;fillColor=none;html=1;fontSize=24;fontStyle=1;verticalAlign=middle;align=center;" parent="1" vertex="1">
          <mxGeometry x="374" y="50" width="100" height="40" as="geometry" />
        </mxCell>
        <mxCell id="NF6D4BPZhElnnvevkt6z-2" value="시스템" style="shape=umlLifeline;perimeter=lifelinePerimeter;whiteSpace=wrap;html=1;container=1;collapsible=0;recursiveResize=0;outlineConnect=0;rounded=1;shadow=0;comic=0;labelBackgroundColor=none;strokeWidth=1;fontFamily=Verdana;fontSize=12;align=center;" parent="1" vertex="1">
          <mxGeometry x="359" y="110" width="100" height="370" as="geometry" />
        </mxCell>
        <mxCell id="NF6D4BPZhElnnvevkt6z-22" value="" style="endArrow=classic;html=1;rounded=0;" parent="NF6D4BPZhElnnvevkt6z-2" edge="1">
          <mxGeometry width="50" height="50" relative="1" as="geometry">
            <mxPoint x="49" y="170" as="sourcePoint" />
            <mxPoint x="-250.33333333333326" y="169.9999999999999" as="targetPoint" />
          </mxGeometry>
        </mxCell>
        <mxCell id="NF6D4BPZhElnnvevkt6z-4" value="DB" style="shape=umlLifeline;perimeter=lifelinePerimeter;whiteSpace=wrap;html=1;container=1;collapsible=0;recursiveResize=0;outlineConnect=0;rounded=1;shadow=0;comic=0;labelBackgroundColor=none;strokeWidth=1;fontFamily=Verdana;fontSize=12;align=center;" parent="1" vertex="1">
          <mxGeometry x="549" y="109" width="100" height="371" as="geometry" />
        </mxCell>
        <mxCell id="NF6D4BPZhElnnvevkt6z-7" value="유저" style="shape=umlLifeline;perimeter=lifelinePerimeter;whiteSpace=wrap;html=1;container=1;collapsible=0;recursiveResize=0;outlineConnect=0;rounded=1;shadow=0;comic=0;labelBackgroundColor=none;strokeWidth=1;fontFamily=Verdana;fontSize=12;align=center;" parent="1" vertex="1">
          <mxGeometry x="59" y="109" width="100" height="371" as="geometry" />
        </mxCell>
        <mxCell id="NF6D4BPZhElnnvevkt6z-15" value="" style="endArrow=classic;html=1;rounded=0;" parent="NF6D4BPZhElnnvevkt6z-7" target="NF6D4BPZhElnnvevkt6z-2" edge="1">
          <mxGeometry width="50" height="50" relative="1" as="geometry">
            <mxPoint x="50" y="111" as="sourcePoint" />
            <mxPoint x="90" y="111" as="targetPoint" />
          </mxGeometry>
        </mxCell>
        <mxCell id="NF6D4BPZhElnnvevkt6z-14" value="KAKAO" style="shape=umlLifeline;perimeter=lifelinePerimeter;whiteSpace=wrap;html=1;container=1;collapsible=0;recursiveResize=0;outlineConnect=0;rounded=1;shadow=0;comic=0;labelBackgroundColor=none;strokeWidth=1;fontFamily=Verdana;fontSize=12;align=center;" parent="1" vertex="1">
          <mxGeometry x="679" y="109" width="100" height="371" as="geometry" />
        </mxCell>
        <mxCell id="NF6D4BPZhElnnvevkt6z-29" value="" style="endArrow=classic;html=1;rounded=0;" parent="NF6D4BPZhElnnvevkt6z-14" target="NF6D4BPZhElnnvevkt6z-7" edge="1">
          <mxGeometry width="50" height="50" relative="1" as="geometry">
            <mxPoint x="50" y="321" as="sourcePoint" />
            <mxPoint x="-50" y="321" as="targetPoint" />
          </mxGeometry>
        </mxCell>
        <mxCell id="NF6D4BPZhElnnvevkt6z-30" value="5. 카카오톡 채팅방 공유" style="text;html=1;strokeColor=none;fillColor=none;align=right;verticalAlign=middle;whiteSpace=wrap;rounded=0;fontSize=13;fontStyle=1" parent="NF6D4BPZhElnnvevkt6z-14" vertex="1">
          <mxGeometry x="-190" y="291" width="240" height="30" as="geometry" />
        </mxCell>
        <mxCell id="NF6D4BPZhElnnvevkt6z-16" value="1. 특정 To-Do 공유 요청" style="text;html=1;strokeColor=none;fillColor=none;align=left;verticalAlign=middle;whiteSpace=wrap;rounded=0;fontSize=13;fontStyle=1" parent="1" vertex="1">
          <mxGeometry x="109" y="190" width="150" height="30" as="geometry" />
        </mxCell>
        <mxCell id="NF6D4BPZhElnnvevkt6z-23" value="2. 공유 링크 전달" style="text;html=1;strokeColor=none;fillColor=none;align=right;verticalAlign=middle;whiteSpace=wrap;rounded=0;fontSize=13;fontStyle=1" parent="1" vertex="1">
          <mxGeometry x="169" y="249" width="240" height="30" as="geometry" />
        </mxCell>
        <mxCell id="NF6D4BPZhElnnvevkt6z-24" value="" style="endArrow=classic;html=1;rounded=0;" parent="1" edge="1">
          <mxGeometry width="50" height="50" relative="1" as="geometry">
            <mxPoint x="109" y="347" as="sourcePoint" />
            <mxPoint x="409" y="347" as="targetPoint" />
          </mxGeometry>
        </mxCell>
        <mxCell id="NF6D4BPZhElnnvevkt6z-25" value="3. 공유 링크 중 카카오톡 채팅방 공유 요청 시" style="text;html=1;strokeColor=none;fillColor=none;align=left;verticalAlign=middle;whiteSpace=wrap;rounded=0;fontSize=13;fontStyle=1" parent="1" vertex="1">
          <mxGeometry x="109" y="318" width="270" height="30" as="geometry" />
        </mxCell>
        <mxCell id="NF6D4BPZhElnnvevkt6z-26" value="" style="endArrow=classic;html=1;rounded=0;" parent="1" target="NF6D4BPZhElnnvevkt6z-14" edge="1">
          <mxGeometry width="50" height="50" relative="1" as="geometry">
            <mxPoint x="409" y="370" as="sourcePoint" />
            <mxPoint x="509" y="370" as="targetPoint" />
          </mxGeometry>
        </mxCell>
        <mxCell id="NF6D4BPZhElnnvevkt6z-28" value="4. 카카오톡 채팅방 공유 API 호출 (JavaScript)" style="text;html=1;strokeColor=none;fillColor=none;align=left;verticalAlign=middle;whiteSpace=wrap;rounded=0;fontSize=13;fontStyle=1" parent="1" vertex="1">
          <mxGeometry x="409" y="340" width="290" height="30" as="geometry" />
        </mxCell>
        <mxCell id="NF6D4BPZhElnnvevkt6z-31" value="카카오" style="shape=umlFrame;whiteSpace=wrap;html=1;pointerEvents=0;fillColor=#d5e8d4;strokeColor=#82b366;" parent="1" vertex="1">
          <mxGeometry x="49" y="310" width="730" height="150" as="geometry" />
        </mxCell>
        <mxCell id="NF6D4BPZhElnnvevkt6z-32" value="회원 프로필 공유 기능" style="text;strokeColor=none;fillColor=none;html=1;fontSize=24;fontStyle=1;verticalAlign=middle;align=center;" parent="1" vertex="1">
          <mxGeometry x="374" y="500" width="100" height="40" as="geometry" />
        </mxCell>
        <mxCell id="NF6D4BPZhElnnvevkt6z-33" value="시스템" style="shape=umlLifeline;perimeter=lifelinePerimeter;whiteSpace=wrap;html=1;container=1;collapsible=0;recursiveResize=0;outlineConnect=0;rounded=1;shadow=0;comic=0;labelBackgroundColor=none;strokeWidth=1;fontFamily=Verdana;fontSize=12;align=center;" parent="1" vertex="1">
          <mxGeometry x="359" y="560" width="100" height="370" as="geometry" />
        </mxCell>
        <mxCell id="NF6D4BPZhElnnvevkt6z-34" value="" style="endArrow=classic;html=1;rounded=0;" parent="NF6D4BPZhElnnvevkt6z-33" edge="1">
          <mxGeometry width="50" height="50" relative="1" as="geometry">
            <mxPoint x="49" y="170" as="sourcePoint" />
            <mxPoint x="-250.33333333333326" y="169.9999999999999" as="targetPoint" />
          </mxGeometry>
        </mxCell>
        <mxCell id="NF6D4BPZhElnnvevkt6z-35" value="DB" style="shape=umlLifeline;perimeter=lifelinePerimeter;whiteSpace=wrap;html=1;container=1;collapsible=0;recursiveResize=0;outlineConnect=0;rounded=1;shadow=0;comic=0;labelBackgroundColor=none;strokeWidth=1;fontFamily=Verdana;fontSize=12;align=center;" parent="1" vertex="1">
          <mxGeometry x="549" y="559" width="100" height="371" as="geometry" />
        </mxCell>
        <mxCell id="NF6D4BPZhElnnvevkt6z-36" value="유저" style="shape=umlLifeline;perimeter=lifelinePerimeter;whiteSpace=wrap;html=1;container=1;collapsible=0;recursiveResize=0;outlineConnect=0;rounded=1;shadow=0;comic=0;labelBackgroundColor=none;strokeWidth=1;fontFamily=Verdana;fontSize=12;align=center;" parent="1" vertex="1">
          <mxGeometry x="59" y="559" width="100" height="371" as="geometry" />
        </mxCell>
        <mxCell id="NF6D4BPZhElnnvevkt6z-37" value="" style="endArrow=classic;html=1;rounded=0;" parent="NF6D4BPZhElnnvevkt6z-36" target="NF6D4BPZhElnnvevkt6z-33" edge="1">
          <mxGeometry width="50" height="50" relative="1" as="geometry">
            <mxPoint x="50" y="111" as="sourcePoint" />
            <mxPoint x="90" y="111" as="targetPoint" />
          </mxGeometry>
        </mxCell>
        <mxCell id="NF6D4BPZhElnnvevkt6z-38" value="KAKAO" style="shape=umlLifeline;perimeter=lifelinePerimeter;whiteSpace=wrap;html=1;container=1;collapsible=0;recursiveResize=0;outlineConnect=0;rounded=1;shadow=0;comic=0;labelBackgroundColor=none;strokeWidth=1;fontFamily=Verdana;fontSize=12;align=center;" parent="1" vertex="1">
          <mxGeometry x="679" y="559" width="100" height="371" as="geometry" />
        </mxCell>
        <mxCell id="NF6D4BPZhElnnvevkt6z-39" value="" style="endArrow=classic;html=1;rounded=0;" parent="NF6D4BPZhElnnvevkt6z-38" target="NF6D4BPZhElnnvevkt6z-36" edge="1">
          <mxGeometry width="50" height="50" relative="1" as="geometry">
            <mxPoint x="50" y="321" as="sourcePoint" />
            <mxPoint x="-50" y="321" as="targetPoint" />
          </mxGeometry>
        </mxCell>
        <mxCell id="NF6D4BPZhElnnvevkt6z-40" value="5. 카카오톡 채팅방 공유" style="text;html=1;strokeColor=none;fillColor=none;align=right;verticalAlign=middle;whiteSpace=wrap;rounded=0;fontSize=13;fontStyle=1" parent="NF6D4BPZhElnnvevkt6z-38" vertex="1">
          <mxGeometry x="-190" y="291" width="240" height="30" as="geometry" />
        </mxCell>
        <mxCell id="NF6D4BPZhElnnvevkt6z-41" value="1. 회원 프로필 공유 요청" style="text;html=1;strokeColor=none;fillColor=none;align=left;verticalAlign=middle;whiteSpace=wrap;rounded=0;fontSize=13;fontStyle=1" parent="1" vertex="1">
          <mxGeometry x="109" y="640" width="150" height="30" as="geometry" />
        </mxCell>
        <mxCell id="NF6D4BPZhElnnvevkt6z-42" value="2. 공유 링크 전달" style="text;html=1;strokeColor=none;fillColor=none;align=right;verticalAlign=middle;whiteSpace=wrap;rounded=0;fontSize=13;fontStyle=1" parent="1" vertex="1">
          <mxGeometry x="169" y="699" width="240" height="30" as="geometry" />
        </mxCell>
        <mxCell id="NF6D4BPZhElnnvevkt6z-43" value="" style="endArrow=classic;html=1;rounded=0;" parent="1" edge="1">
          <mxGeometry width="50" height="50" relative="1" as="geometry">
            <mxPoint x="109" y="797" as="sourcePoint" />
            <mxPoint x="409" y="797" as="targetPoint" />
          </mxGeometry>
        </mxCell>
        <mxCell id="NF6D4BPZhElnnvevkt6z-44" value="3. 공유 링크 중 카카오톡 채팅방 공유 요청 시" style="text;html=1;strokeColor=none;fillColor=none;align=left;verticalAlign=middle;whiteSpace=wrap;rounded=0;fontSize=13;fontStyle=1" parent="1" vertex="1">
          <mxGeometry x="109" y="768" width="270" height="30" as="geometry" />
        </mxCell>
        <mxCell id="NF6D4BPZhElnnvevkt6z-45" value="" style="endArrow=classic;html=1;rounded=0;" parent="1" target="NF6D4BPZhElnnvevkt6z-38" edge="1">
          <mxGeometry width="50" height="50" relative="1" as="geometry">
            <mxPoint x="409" y="820" as="sourcePoint" />
            <mxPoint x="509" y="820" as="targetPoint" />
          </mxGeometry>
        </mxCell>
        <mxCell id="NF6D4BPZhElnnvevkt6z-46" value="4. 카카오톡 채팅방 공유 API 호출 (JavaScript)" style="text;html=1;strokeColor=none;fillColor=none;align=left;verticalAlign=middle;whiteSpace=wrap;rounded=0;fontSize=13;fontStyle=1" parent="1" vertex="1">
          <mxGeometry x="409" y="790" width="290" height="30" as="geometry" />
        </mxCell>
        <mxCell id="NF6D4BPZhElnnvevkt6z-47" value="카카오" style="shape=umlFrame;whiteSpace=wrap;html=1;pointerEvents=0;fillColor=#d5e8d4;strokeColor=#82b366;" parent="1" vertex="1">
          <mxGeometry x="49" y="760" width="730" height="150" as="geometry" />
        </mxCell>
      </root>
    </mxGraphModel>
  </diagram>
</mxfile>
